<svg width="31" height="30" viewBox="0 0 31 30" fill="none" xmlns="http://www.w3.org/2000/svg">
<path d="M15.0497 0.0678711C12.0732 0.0678711 9.16348 0.943623 6.68857 2.58439C4.21367 4.22515 2.28467 6.55722 1.1456 9.28572C0.00652022 12.0142 -0.291513 15.0166 0.289182 17.9131C0.869882 20.8097 2.30324 23.4703 4.40797 25.5584C6.51271 27.6468 9.19436 29.069 12.1137 29.6453C15.0331 30.2214 18.0591 29.9257 20.8091 28.7957C23.5591 27.6653 25.9093 25.7514 27.5632 23.2958C29.2169 20.8403 30.0995 17.9533 30.0995 15C30.0995 11.0397 28.514 7.24169 25.6915 4.44139C22.8691 1.64107 19.0412 0.0678711 15.0497 0.0678711ZM24.2945 17.1822C24.2945 17.4809 22.9357 17.5235 22.9357 17.8222C22.9357 18.1208 24.2796 18.5261 24.2796 18.9379C24.2796 19.4412 21.5103 19.5158 21.5103 20.0194C21.5103 20.5569 23.6108 20.3905 23.6108 20.9729C23.6108 21.6597 18.3349 21.3397 18.3349 22.0544C18.3349 22.3273 19.01 22.4405 19.855 22.5301C20.3194 22.5812 20.2182 22.8073 19.9539 22.9568C18.4768 23.8508 16.78 24.324 15.0497 24.324C13.3195 24.324 11.6227 23.8508 10.1457 22.9568C9.88337 22.7968 9.78017 22.5706 10.2446 22.5301C11.0895 22.4405 11.7668 22.3168 11.7668 22.0544C11.7668 21.3397 6.48858 21.6597 6.48858 20.9729C6.48858 20.3905 8.59127 20.5462 8.59127 20.0194C8.59127 19.5158 5.81998 19.4412 5.81998 18.9379C5.81998 18.5261 7.16587 18.1272 7.16587 17.8222C7.16587 17.5171 5.80492 17.483 5.80492 17.1822C5.80492 16.8814 6.79822 16.6873 6.79822 16.474C6.79822 16.0708 5.64366 16.8046 5.64366 15C5.64366 12.5248 6.6347 10.1511 8.39867 8.40087C10.1627 6.65067 12.5551 5.66741 15.0497 5.66741C17.5444 5.66741 19.9369 6.65067 21.7009 8.40087C23.4649 10.1511 24.4558 12.5248 24.4558 15C24.4558 16.8046 23.3014 16.0666 23.3014 16.474C23.3014 16.6873 24.2945 16.8601 24.2945 17.1822Z" fill="#4F46E5"/>
</svg>
